# xmcd
#
# Track frame offsets:
#	150
#	27312
#	47607
#	72457
#	93360
#	101417
#	109830
#	133367
#	166795
#	194815
#	262062
#	281127
#
# Disc length: 4112 seconds
#
# Revision: 1
# Processed by: cddbd v1.5.1PL0 Copyright (c) Steve Scherf et al.
# Submitted via: CDex 1.50Beta5
#
DISCID=b7100e0c
DTITLE=Oedo Wind Orchestra - Another Orthodoxy
DYEAR=1900
DGENRE=Jazz
TTITLE0=ゴッドスピード
TTITLE1=シンフォニックソング1
TTITLE2=シンフォニックソング2
TTITLE3=シンフォニックソング3
TTITLE4=プレリュード、フーガとリフ1
TTITLE5=プレリュード、フーガとリフ2
TTITLE6=プレリュード、フーガとリフ3
TTITLE7=ラ・フェイスタ
TTITLE8=サム・スカンク・ファンク
TTITLE9=スペクトラム伝説
TTITLE10=ムーンライトセレナーデ
TTITLE11=ディスコ・キッド
EXTD=
EXTT0=
EXTT1=
EXTT2=
EXTT3=
EXTT4=
EXTT5=
EXTT6=
EXTT7=
EXTT8=
EXTT9=
EXTT10=
EXTT11=
PLAYORDER=
